<mxfile>
    <diagram id="fDxJOs-Pcv6SKHLIagI-" name="Page-1">
        <mxGraphModel dx="1108" dy="830" grid="1" gridSize="10" guides="1" tooltips="1" connect="1" arrows="1" fold="1" page="1" pageScale="1" pageWidth="850" pageHeight="1100" math="0" shadow="0">
            <root>
                <mxCell id="0"/>
                <mxCell id="1" value="Text" parent="0"/>
                <mxCell id="6" value="&lt;font style=&quot;font-size: 82px&quot;&gt;All1&lt;br&gt;All2&lt;br&gt;&amp;nbsp; &amp;nbsp; Any1&lt;br&gt;&amp;nbsp; &amp;nbsp; Any2&lt;br&gt;&amp;nbsp; &amp;nbsp; &amp;nbsp; &amp;nbsp; All3&lt;br&gt;&amp;nbsp; &amp;nbsp; &amp;nbsp; &amp;nbsp; All4&lt;br&gt;&lt;/font&gt;" style="text;html=1;strokeColor=none;align=left;verticalAlign=middle;whiteSpace=wrap;rounded=0;dashed=1;" parent="1" vertex="1">
                    <mxGeometry x="89" y="120" width="470" height="590" as="geometry"/>
                </mxCell>
                <mxCell id="7" value="Boxes" parent="0"/>
                <mxCell id="5" value="" style="rounded=0;whiteSpace=wrap;html=1;strokeWidth=3;dashed=1;fillColor=none;" parent="7" vertex="1">
                    <mxGeometry x="90" y="320" width="420" height="400" as="geometry"/>
                </mxCell>
                <mxCell id="4" value="" style="rounded=0;whiteSpace=wrap;html=1;strokeWidth=3;fillColor=none;" parent="7" vertex="1">
                    <mxGeometry x="10" y="120" width="530" height="620" as="geometry"/>
                </mxCell>
                <mxCell id="8" value="" style="rounded=0;whiteSpace=wrap;html=1;strokeWidth=3;fillColor=none;" parent="7" vertex="1">
                    <mxGeometry x="180" y="520" width="300" height="180" as="geometry"/>
                </mxCell>
                <mxCell id="10" value="Untitled Layer" parent="0" visible="0"/>
            </root>
        </mxGraphModel>
    </diagram>
</mxfile>